# xmcd
#
# Track frame offsets: 
#        150
#        25005
#        44113
#        64109
#
# Disc length: 1090 seconds
#
# Revision: 1
# Processed by: cddbd v1.5.2PL0 Copyright (c) Steve Scherf et al.
# Submitted via: ExactAudioCopy v1.3
#
DISCID=31044004
DTITLE=Hozier - From Eden EP
DYEAR=2014
DGENRE=Alt. Rock
TTITLE0=In The Woods Somewhere
TTITLE1=Run
TTITLE2=Arsonist's Lullabye 
TTITLE3=My Love Will Never Die
EXTD=
EXTT0=
EXTT1=
EXTT2=
EXTT3=
PLAYORDER=
